Patient4_TMGait_0pt8_01_left_49_EMG.mot
version=1
nRows=37
nColumns=33
inDegrees=no
endheader
time	1LAddLong	2LGlutMax	3LGlutMed	4LIliopsoas	5LSemiMemb	6LBicFemLong	7LRecFem	8LVastMed	9LVastLat	10LGasMed	11LTibAnt	12lTibPost	13LPeroneusLong	14LSol	15LExtDigLong	16LFlexDigLong	17RAddLong	18RGlutMax	19RGlutMed	20RIliopsoas	21RSemiMemb	22RBicFemLong	23RRecFem	24RVastMed	25RVastLat	26RGasMed	27RTibAnt	28RTibPost	29RPeroneusLong	30RSol	31RExtDigLong	32RFlexDigLong
55.385	0.001068	0.049286	0.3598	0.002747	-0.007019	0.00824	-0.46112	0.004578	-0.0737	-0.47409	0.005188	-0.082855	-0.043488	0.31174	0.028534	-0.14038	0.12711	-0.065002	1.4796	0.10819	0.47333	0.17456	-0.439	-0.34225	-0.89233	-0.009918	-0.45425	0.00061	0.28412	-0.090485	-0.000763	-0.006256
55.386	0.013428	0.097198	0.40237	0.003967	-0.054321	0.066376	-0.45242	0.001068	-0.065308	-0.85861	0.003357	0.021057	0.03006	0.26977	-0.010986	-0.02243	0.1181	-0.021973	1.1545	0.1712	0.26855	0.16159	-0.33463	-0.40634	-0.78857	-0.014954	-0.53238	-0.002899	0.1886	-0.054016	-0.001831	-0.00473
55.387	0.007324	0.079193	0.47684	-0.001831	-0.066071	0.039063	-0.43915	0.008392	-0.048828	-0.52673	-0.007782	0.080414	0.077362	-0.32715	-0.018005	0.40466	0.097809	-0.04715	0.90164	0.23361	0.031281	0.14771	-0.36133	-0.21225	-0.14984	-0.014343	0.084839	-0.007172	0.037384	-0.063934	-0.002899	-0.007019
55.388	0.00412	0.037231	0.50949	0.006866	-0.019989	-0.00351	-0.42313	0.011749	-0.060883	-0.23773	-0.040283	-0.029907	0.22247	-0.6189	-0.014648	0.024719	0.010223	-0.06134	0.82733	0.078888	-0.33905	0.29205	-0.50095	-0.006866	0.21149	-0.015106	0.61462	0.006256	0.005341	-0.1091	0	-0.005951
55.389	0.014648	0.030365	0.51117	0.03006	0.018463	-0.003052	-0.41382	0.011292	-0.041656	0.016174	-0.036926	-0.097809	0.29846	-0.64026	-0.024109	-0.035858	-0.038757	-0.028839	0.72296	-0.028534	-0.16663	0.37155	-0.4277	0.030823	0.24399	0.001068	0.60623	-0.006561	-0.0177	-0.16861	-0.000305	-0.011139
55.39	0.018463	-0.015717	0.54794	0.013428	0.016632	-0.036316	-0.37918	0.001984	-0.049591	0.20523	0.010681	-0.02533	0.15274	-0.23392	-0.030823	-0.066071	-0.035095	-0.19989	0.58289	-0.052185	0.21072	0.3212	-0.28946	0.32898	0.1831	0.00412	0.61218	-0.003204	0.052795	-0.1239	-0.002747	-0.017548
55.391	0.017395	-0.042572	0.5542	-0.006104	-0.037231	0.018005	-0.37796	0.008392	-0.055389	0.19089	0.005798	-0.018005	-0.039215	0.11063	-0.056458	-0.00824	-0.003662	-0.10895	0.58884	0.007172	0.39551	0.31418	-0.17761	0.76981	0.16113	0.000916	0.15762	-0.001068	0.05722	-0.049286	-0.002441	-0.009003
55.392	0.021973	-0.024872	0.55817	0.01236	-0.095367	-0.006409	-0.36667	0.005646	-0.040283	0.042267	0.01709	-0.009003	-0.076599	0.40924	-0.060272	0.047913	-0.029907	0.051422	1.1378	0.07431	0.4718	0.28153	-0.058441	0.6218	0.078735	-0.002594	-1.0658	-0.005798	0.097961	-0.002747	-0.006104	-0.0177
55.393	0.011292	-0.022888	0.55893	-0.007019	-0.06073	-0.03006	-0.34286	0.00412	-0.037689	-0.17258	0.009918	-0.001678	-0.019226	0.13123	-0.023651	0.039978	0.018311	0.1294	1.5506	0.090027	0.37705	0.089417	-0.098419	0.48035	0.09903	-0.006561	-1.0271	-0.009766	0.032959	0.024414	-0.003357	-0.021057
55.394	0.016937	0.013733	0.54932	-0.002136	0.080414	-0.022278	-0.35538	0.006866	-0.045471	-0.32044	0.011292	-0.005951	0.002441	-0.013885	0.034637	-0.007935	0.078125	0.19073	1.2241	0.071411	0.15869	-0.073242	-0.055237	0.12787	0.23041	-0.011597	-0.39719	-0.002594	0.033722	0.14069	-0.003052	-0.008698
55.395	0.006866	0.070496	0.56763	0.012665	0.078278	0.020599	-0.32837	0.001068	-0.051575	-0.31738	0.009003	-0.033112	0.068207	-0.065308	0.044708	-0.3331	0.033875	0.27496	0.9346	0.039215	0.089569	-0.063171	-0.02243	-0.04837	0.29373	-0.012665	0.056	-0.005188	-0.04425	0.21088	-0.005798	-0.009155
55.396	0.015106	0.13443	0.59647	-0.012665	0.032806	0.007935	-0.33569	0.001221	-0.032806	-0.13901	0.00885	-0.093994	0.28275	0.13184	0.063934	0.24658	-0.015564	0.26016	0.8847	-0.022736	0.11902	0.00061	0.10498	-0.34714	0.058899	-0.00824	0.121	-0.002899	-0.014648	0.1268	-0.000458	0.002136
55.397	0.014954	0.12726	0.62363	-0.016022	0.007172	-0.010071	-0.33463	0.005951	-0.023956	-0.02594	0.010529	0.092773	0.26489	-0.059357	0.10025	0.050659	-0.004883	0.35706	0.8725	-0.035248	0.17716	0.008392	0.032959	-0.62164	0.010071	-0.007935	-0.068817	-0.000763	0.028381	-0.039063	0.000916	0.010529
55.398	-0.004272	0.1268	0.54245	0.002289	-0.026093	0.013733	-0.33707	0	-0.021362	0.05249	0.015106	0.18127	-0.14313	-0.31876	0.13123	-1.1311	-0.06073	0.44922	0.75653	-0.012512	-0.271	0.041504	-0.19486	-0.30106	0.053558	-0.005951	-0.34653	-0.00824	0.014496	-0.056305	-0.000305	0.003052
55.399	0.015564	0.095215	0.53253	0.022125	-0.052643	0.016479	-0.31754	0.012207	-0.007782	0.17624	-0.022125	1.2436	-0.077362	-0.30914	0.14175	1.1562	-0.10407	0.39948	0.72281	-0.1561	0.029144	0.17578	-0.2446	-0.009155	0.080261	-0.007935	-0.43137	-0.000305	-0.01358	0.016937	0.004425	0.002136
55.4	0.01358	0.02655	0.49103	0.014954	-0.059967	0.015869	-0.29739	0.01358	-0.016174	0.45593	-0.038757	-0.2536	-0.071411	0.3241	0.12634	-0.62256	-0.10956	0.20599	0.91309	-0.16083	0.28183	0.26382	-0.48141	-0.011749	0.008392	-0.007935	-0.12344	-0.001984	0.057678	0.057373	-0.001221	-0.000458
55.401	0.021515	0.065155	0.50766	-0.002747	-0.036774	-0.075378	-0.26871	0.009003	0.006409	0.43228	-0.010681	-0.22812	-0.061493	0.62546	0.013428	0.522	-0.09613	0.068817	0.77438	-0.064392	0.37262	0.51926	-0.49454	-0.22385	-0.24567	-0.010986	-0.054016	-0.012054	0.020142	0.095978	-0.00412	0.007172
55.402	0.012665	0.086517	0.52231	-0.008392	-0.022736	-0.052948	-0.24414	0.009613	-0.002441	0.03479	0.027466	-0.24719	-0.39261	0.5481	-0.085754	-0.065308	-0.061951	0.085754	0.73502	0.079041	0.35111	0.39993	-0.34271	-0.36392	-0.38208	-0.009613	0.12955	0.002136	0.086212	0.092163	-0.002441	-0.003815
55.403	0.005188	0.055237	0.50461	0.021973	0.050049	0.018158	-0.24033	0.010834	-0.012665	0.25452	0.022888	0.24582	-0.354	1.2703	-0.067749	0.45456	-0.024414	0.067596	0.80551	0.11215	0.35614	0.21133	-0.17868	-0.33203	-0.10391	-0.004272	0.10651	-0.007019	0.14328	0.088806	-0.002136	-0.005798
55.404	0.009003	0.034637	0.4863	0.052643	0.059662	0.053101	-0.20584	0.009003	-0.016785	0.24796	-0.002899	-0.089722	-0.014648	2.0103	-0.005951	0.20065	-0.006714	0.087585	0.92865	0.038147	0.44159	0.24811	-0.31754	-0.32913	0.26764	-0.007629	0.097656	-0.005951	0.099182	0.041351	-0.00412	-0.005798
55.405	0.007782	0.029755	0.56488	0.029602	0.003662	0.093994	-0.19272	0.009003	-0.002441	0.6662	0.007782	-0.40085	-0.11139	1.6353	-0.066986	-0.289	-0.004578	0.15671	0.74722	-0.11963	0.36636	0.43335	-0.70404	-0.008698	0.46677	-0.013123	-0.10101	-0.000458	0.032654	0.083618	-0.002899	-0.011749
55.406	0.004883	0.041962	0.57175	-0.017395	-0.023346	0.04303	-0.19913	0.006866	0.010376	0.5513	0.0177	-0.089111	-0.031128	0.45349	-0.17242	0.11612	0.024719	0.22354	0.39322	-0.23178	0.2449	0.43839	-0.91034	0.033264	0.20096	-0.020447	-0.11292	-0.002136	0.10803	0.065613	-0.004425	-0.009613
55.407	0.015564	0.03891	0.59845	-0.016937	-0.032806	-0.015564	-0.18814	0.009003	0.01709	-0.1944	-0.005646	-0.070648	0.20767	-1.2732	-0.19379	-0.39551	0.066376	0.21408	0.015411	-0.27496	-0.049438	0.39032	-1.0603	-0.10849	0.17303	-0.019989	-0.11231	-0.005646	0.11948	0.065002	0.001373	-0.009918
55.408	0.007629	0.051117	0.55084	-0.007172	-0.045929	-0.072021	-0.1741	0.032806	0.012817	-0.68344	-0.011444	0.37354	0.24429	-1.8269	-0.077209	-1.1899	0.075684	0.16144	-0.34836	-0.13184	-0.02533	0.28564	-0.85236	-0.17044	0.45685	-0.016174	-0.003815	-0.000916	0.06073	0.038452	-0.00061	-0.001526
55.409	0.009155	-0.067444	0.51025	-0.00824	-0.041809	-0.17395	-0.16663	-0.001526	0.030823	-0.65567	0.009766	-0.47516	0.1265	-1.1107	-0.018616	0.63812	0.054321	-0.11261	0.11063	0.045471	0.052185	0.21805	-0.65887	0.1207	0.51941	-0.011444	0.048065	0.000458	-0.14816	0.011292	-0.002747	-0.001526
55.41	0.013885	-0.13763	0.48294	0.003815	-0.030823	-0.16571	-0.1619	0.044861	0.009308	-0.44891	0.013123	-0.074921	-0.10376	-0.48492	0.01236	0.8989	0.12466	-0.27557	0.96024	0.20706	0.14526	-0.000153	-0.36499	0.087585	0.21545	-0.007629	-0.001221	0.001068	0.013428	0.001678	-0.001221	-0.005493
55.411	0.00824	-0.14084	0.47058	0.006104	0.007629	-0.081329	-0.16357	0.021515	0.010376	0.17242	0.017853	-0.11444	-0.25314	-0.000305	0.035248	0.040436	0.17609	-0.27481	0.87769	0.31357	0.13763	-0.23209	-0.14786	-0.011597	-0.14221	-0.007935	-0.002136	0.001526	0.24612	-0.0737	-0.001221	-0.010834
55.412	0.013733	-0.16892	0.44723	0.012054	0.013275	-0.010376	-0.16281	0.007477	0.041504	0.21271	0.005035	-0.32944	-0.46539	0.224	0.052338	0.068817	0.21591	-0.4216	0.39749	0.29785	-0.076141	-0.24185	-0.091248	-0.060577	-0.12451	-0.006866	0.09964	0.001068	0.4007	-0.073242	0.001831	-0.003052
55.413	0.015717	-0.1973	0.42191	0.065002	0.008698	-0.003815	-0.14725	0.006409	0.039825	0.84564	0.005798	-0.041351	-0.4773	-1.0828	0.018158	0.30197	0.21332	-0.30273	0.46967	0.16281	-0.40283	-0.10223	-0.069122	0.045319	0.042114	-0.010376	0.084686	0.004272	-0.23895	-0.015106	-0.002899	-0.002289
55.414	0.018463	-0.20676	0.44159	0.036316	-0.002441	-0.025177	-0.14664	0.000916	0.047455	0.35202	-0.007019	0.46097	-0.24567	-1.2424	-0.007019	-0.6633	0.07843	-0.14786	0.3183	0.020752	-0.83588	0.096741	-0.11276	0.10819	0.55862	-0.011292	0.11017	-0.00412	-0.055695	0.018311	-0.003204	-0.002594
55.415	0.028687	-0.17258	0.39215	0.027008	-0.001221	-0.053406	-0.11093	0.005188	0.051727	0.13275	-0.0177	0.029297	0.005646	-0.52628	0.015869	-0.25192	-0.001526	0.043335	0.21057	-0.005493	-0.60623	0.21927	-0.058289	0.24872	1.1353	-0.006256	0.15305	0.002747	-0.73578	-0.097198	-0.003052	-0.007935
55.416	0.018311	-0.16205	0.37491	0.018158	0.00473	-0.024719	-0.089874	-0.006409	0.041656	0.069885	-0.008698	-0.4773	0.30334	-0.24109	-0.043335	-0.53848	-0.022888	0.14221	0.44571	0.026245	0.15976	0.3923	0.047607	0.28976	0.96268	-0.006256	0.099792	-0.000305	-1.2199	-0.13397	-0.004272	-0.00824
55.417	0.020447	-0.12665	0.30304	0.005646	-0.018921	-0.04303	-0.070801	-0.038605	0.039215	0.14862	-0.017242	-0.22934	0.50827	0.058746	-0.040894	1.0585	-0.02533	0.074615	0.32989	0.038452	0.55313	0.44952	-0.028839	0.38208	0.52139	-0.007935	0.11673	0.001373	-0.69168	0.028992	-0.003967	-0.008087
55.418	0.013275	-0.14801	0.39337	-0.008392	-0.017395	-0.12375	-0.051117	0.017395	0.023804	0.13794	-0.01358	-0.16739	0.45837	-0.43808	-0.040283	-0.19302	-0.050812	0.10956	0.48599	-0.014648	0.22492	0.34515	-0.09079	0.29694	-0.05188	-0.011139	0.14908	-0.007935	0.47348	0.092316	-0.003662	-0.014648
55.419	0.005951	-0.15457	0.40863	-0.002289	0.002899	-0.13901	-0.002289	0.002136	0.009766	-0.16068	0.003052	0.13031	0.40771	-0.2681	-0.052338	-0.17548	-0.090942	0.1297	0.46692	-0.062866	0.091095	0.30045	-0.09079	0.14191	-0.26657	-0.009155	-0.013885	-0.000763	1.3208	0.009308	-0.00351	-0.020752
55.42	0.015717	-0.17242	0.39917	0.009613	-0.014038	-0.020905	-0.014801	0.01297	0.010986	-0.17364	0.002899	-0.2179	0.35202	-0.23193	-0.069885	0.3685	-0.094299	0.10086	-0.030365	-0.11169	0.31998	0.15396	-0.14038	-0.032501	-0.22049	-0.005341	-0.11017	-0.001678	0.20264	-0.068512	-0.004425	-0.018005
55.421	0.014954	-0.18524	0.31723	-0.004883	-0.010834	0.095673	-0.004272	0.007477	0.016632	-0.075226	-0.007019	0.41611	0.31891	0.17929	-0.056458	0.044403	-0.046234	0.13229	-0.79346	-0.059204	0.4126	0.032959	-0.20187	-0.050201	-0.37262	-0.009003	-0.066681	-0.00061	-0.21973	-0.061188	-0.005493	-0.019531
